<svg width="355" height="71" viewBox="0 0 355 71" fill="none" xmlns="http://www.w3.org/2000/svg">
<g filter="url(#filter0_d)">
<path d="M125.632 14.876V55H122.916C122.487 55 122.123 54.9253 121.824 54.776C121.544 54.6267 121.264 54.3747 120.984 54.02L97.772 23.78C97.8093 24.2467 97.8373 24.704 97.856 25.152C97.8747 25.6 97.884 26.02 97.884 26.412V55H93.124V14.876H95.924C96.1667 14.876 96.372 14.8947 96.54 14.932C96.708 14.9507 96.8573 14.9973 96.988 15.072C97.1187 15.128 97.2493 15.2213 97.38 15.352C97.5107 15.464 97.6507 15.6133 97.8 15.8L121.012 46.012C120.975 45.5267 120.937 45.06 120.9 44.612C120.881 44.1453 120.872 43.7067 120.872 43.296V14.876H125.632ZM157.198 40.104L150.898 23.78C150.711 23.2947 150.515 22.7347 150.31 22.1C150.104 21.4467 149.908 20.756 149.722 20.028C149.33 21.54 148.928 22.8 148.518 23.808L142.218 40.104H157.198ZM168.51 55H164.31C163.824 55 163.432 54.8787 163.134 54.636C162.835 54.3933 162.611 54.0853 162.462 53.712L158.71 44.024H140.706L136.954 53.712C136.842 54.048 136.627 54.3467 136.31 54.608C135.992 54.8693 135.6 55 135.134 55H130.934L146.978 14.876H152.466L168.51 55ZM188.342 50.688C190.004 50.688 191.488 50.408 192.794 49.848C194.101 49.288 195.202 48.504 196.098 47.496C197.013 46.488 197.704 45.284 198.17 43.884C198.656 42.484 198.898 40.944 198.898 39.264V14.876H204.302V39.264C204.302 41.5787 203.929 43.7253 203.182 45.704C202.454 47.6827 201.4 49.4 200.018 50.856C198.656 52.2933 196.985 53.4227 195.006 54.244C193.028 55.0653 190.806 55.476 188.342 55.476C185.878 55.476 183.657 55.0653 181.678 54.244C179.7 53.4227 178.02 52.2933 176.638 50.856C175.257 49.4 174.193 47.6827 173.446 45.704C172.718 43.7253 172.354 41.5787 172.354 39.264V14.876H177.758V39.236C177.758 40.916 177.992 42.456 178.458 43.856C178.944 45.256 179.634 46.46 180.53 47.468C181.445 48.476 182.556 49.2693 183.862 49.848C185.188 50.408 186.681 50.688 188.342 50.688ZM255.786 14.876V55H251.026V25.516C251.026 25.124 251.035 24.704 251.054 24.256C251.091 23.808 251.129 23.3507 251.166 22.884L237.39 47.972C236.961 48.812 236.307 49.232 235.43 49.232H234.646C233.769 49.232 233.115 48.812 232.686 47.972L218.63 22.772C218.742 23.7613 218.798 24.676 218.798 25.516V55H214.038V14.876H218.042C218.527 14.876 218.901 14.9227 219.162 15.016C219.423 15.1093 219.675 15.3707 219.918 15.8L233.778 40.496C234.002 40.944 234.217 41.4107 234.422 41.896C234.646 42.3813 234.851 42.876 235.038 43.38C235.225 42.876 235.421 42.3813 235.626 41.896C235.831 41.392 236.055 40.916 236.298 40.468L249.906 15.8C250.13 15.3707 250.373 15.1093 250.634 15.016C250.914 14.9227 251.297 14.876 251.782 14.876H255.786ZM303.118 34.952C303.118 37.9573 302.642 40.72 301.69 43.24C300.738 45.7413 299.394 47.8973 297.658 49.708C295.922 51.5187 293.831 52.928 291.386 53.936C288.959 54.9253 286.271 55.42 283.322 55.42C280.373 55.42 277.685 54.9253 275.258 53.936C272.831 52.928 270.75 51.5187 269.014 49.708C267.278 47.8973 265.934 45.7413 264.982 43.24C264.03 40.72 263.554 37.9573 263.554 34.952C263.554 31.9467 264.03 29.1933 264.982 26.692C265.934 24.172 267.278 22.0067 269.014 20.196C270.75 18.3667 272.831 16.948 275.258 15.94C277.685 14.932 280.373 14.428 283.322 14.428C286.271 14.428 288.959 14.932 291.386 15.94C293.831 16.948 295.922 18.3667 297.658 20.196C299.394 22.0067 300.738 24.172 301.69 26.692C302.642 29.1933 303.118 31.9467 303.118 34.952ZM297.546 34.952C297.546 32.488 297.21 30.276 296.538 28.316C295.866 26.356 294.914 24.704 293.682 23.36C292.45 21.9973 290.957 20.952 289.202 20.224C287.447 19.496 285.487 19.132 283.322 19.132C281.175 19.132 279.225 19.496 277.47 20.224C275.715 20.952 274.213 21.9973 272.962 23.36C271.73 24.704 270.778 26.356 270.106 28.316C269.434 30.276 269.098 32.488 269.098 34.952C269.098 37.416 269.434 39.628 270.106 41.588C270.778 43.5293 271.73 45.1813 272.962 46.544C274.213 47.888 275.715 48.924 277.47 49.652C279.225 50.3613 281.175 50.716 283.322 50.716C285.487 50.716 287.447 50.3613 289.202 49.652C290.957 48.924 292.45 47.888 293.682 46.544C294.914 45.1813 295.866 43.5293 296.538 41.588C297.21 39.628 297.546 37.416 297.546 34.952ZM342.416 14.876L326.064 55H321.192L304.84 14.876H309.18C309.665 14.876 310.057 14.9973 310.356 15.24C310.655 15.4827 310.879 15.7907 311.028 16.164L322.34 44.472C322.583 45.1067 322.816 45.7973 323.04 46.544C323.283 47.2907 323.497 48.0747 323.684 48.896C323.871 48.0747 324.067 47.2907 324.272 46.544C324.477 45.7973 324.701 45.1067 324.944 44.472L336.228 16.164C336.34 15.8467 336.555 15.5573 336.872 15.296C337.208 15.016 337.609 14.876 338.076 14.876H342.416Z" fill="#00ADB5"/>
<path d="M19.32 42.232C17.024 42.3067 15.064 42.4933 13.44 42.792C11.8347 43.072 10.5187 43.4453 9.492 43.912C8.484 44.3787 7.74667 44.9293 7.28 45.564C6.832 46.1987 6.608 46.908 6.608 47.692C6.608 48.4387 6.72933 49.0827 6.972 49.624C7.21467 50.1653 7.54133 50.6133 7.952 50.968C8.38133 51.304 8.876 51.556 9.436 51.724C10.0147 51.8733 10.6307 51.948 11.284 51.948C12.1613 51.948 12.964 51.864 13.692 51.696C14.42 51.5093 15.1013 51.248 15.736 50.912C16.3893 50.576 17.0053 50.1747 17.584 49.708C18.1813 49.2413 18.76 48.7093 19.32 48.112V42.232ZM3.22 30.64C4.788 29.128 6.47733 27.9987 8.288 27.252C10.0987 26.5053 12.1053 26.132 14.308 26.132C15.8947 26.132 17.304 26.3933 18.536 26.916C19.768 27.4387 20.804 28.1667 21.644 29.1C22.484 30.0333 23.1187 31.1627 23.548 32.488C23.9773 33.8133 24.192 35.2693 24.192 36.856V55H21.98C21.4947 55 21.1213 54.9253 20.86 54.776C20.5987 54.608 20.3933 54.2907 20.244 53.824L19.684 51.136C18.9373 51.8267 18.2093 52.4427 17.5 52.984C16.7907 53.5067 16.044 53.9547 15.26 54.328C14.476 54.6827 13.636 54.9533 12.74 55.14C11.8627 55.3453 10.8827 55.448 9.8 55.448C8.69867 55.448 7.66267 55.2987 6.692 55C5.72133 54.6827 4.872 54.216 4.144 53.6C3.43467 52.984 2.86533 52.2093 2.436 51.276C2.02533 50.324 1.82 49.204 1.82 47.916C1.82 46.796 2.128 45.7227 2.744 44.696C3.36 43.6507 4.35867 42.7267 5.74 41.924C7.12133 41.1213 8.92267 40.468 11.144 39.964C13.3653 39.4413 16.0907 39.1427 19.32 39.068V36.856C19.32 34.6533 18.844 32.992 17.892 31.872C16.94 30.7333 15.5493 30.164 13.72 30.164C12.488 30.164 11.452 30.3227 10.612 30.64C9.79067 30.9387 9.072 31.284 8.456 31.676C7.85867 32.0493 7.336 32.3947 6.888 32.712C6.45867 33.0107 6.02933 33.16 5.6 33.16C5.264 33.16 4.97467 33.076 4.732 32.908C4.48933 32.7213 4.284 32.4973 4.116 32.236L3.22 30.64ZM36.9359 13.756V55H31.9519V13.756H36.9359ZM64.0023 37.724C64.0023 36.5667 63.8343 35.512 63.4983 34.56C63.181 33.5893 62.705 32.7587 62.0703 32.068C61.4543 31.3587 60.6983 30.8173 59.8023 30.444C58.9063 30.052 57.889 29.856 56.7503 29.856C54.361 29.856 52.4663 30.556 51.0663 31.956C49.685 33.3373 48.8263 35.26 48.4903 37.724H64.0023ZM68.0343 51.024C67.4183 51.7707 66.681 52.424 65.8223 52.984C64.9636 53.5253 64.0396 53.9733 63.0503 54.328C62.0796 54.6827 61.0716 54.944 60.0263 55.112C58.981 55.2987 57.945 55.392 56.9183 55.392C54.9583 55.392 53.1476 55.0653 51.4863 54.412C49.8436 53.74 48.4156 52.7693 47.2023 51.5C46.0076 50.212 45.0743 48.6253 44.4023 46.74C43.7303 44.8547 43.3943 42.6893 43.3943 40.244C43.3943 38.2653 43.693 36.4173 44.2903 34.7C44.9063 32.9827 45.7836 31.4987 46.9223 30.248C48.061 28.9787 49.4516 27.9893 51.0943 27.28C52.737 26.552 54.585 26.188 56.6383 26.188C58.337 26.188 59.905 26.4773 61.3423 27.056C62.7983 27.616 64.049 28.4373 65.0943 29.52C66.1583 30.584 66.989 31.9093 67.5863 33.496C68.1836 35.064 68.4823 36.856 68.4823 38.872C68.4823 39.656 68.3983 40.1787 68.2303 40.44C68.0623 40.7013 67.745 40.832 67.2783 40.832H48.3223C48.3783 42.624 48.621 44.1827 49.0503 45.508C49.4983 46.8333 50.1143 47.944 50.8983 48.84C51.6823 49.7173 52.6156 50.38 53.6983 50.828C54.781 51.2573 55.9943 51.472 57.3383 51.472C58.589 51.472 59.6623 51.332 60.5583 51.052C61.473 50.7533 62.257 50.436 62.9103 50.1C63.5636 49.764 64.105 49.456 64.5343 49.176C64.9823 48.8773 65.365 48.728 65.6823 48.728C66.093 48.728 66.4103 48.8867 66.6343 49.204L68.0343 51.024ZM97.5174 55H92.7294C92.3188 55 91.9921 54.8973 91.7494 54.692C91.5254 54.468 91.3388 54.2253 91.1894 53.964L84.0494 42.848C83.9748 43.1093 83.8908 43.3707 83.7974 43.632C83.7228 43.8747 83.6108 44.0987 83.4614 44.304L76.8534 53.964C76.6668 54.2253 76.4614 54.468 76.2374 54.692C76.0321 54.8973 75.7428 55 75.3694 55H70.9174L80.8574 40.44L71.3094 26.636H76.0974C76.5081 26.636 76.8068 26.7013 76.9934 26.832C77.1801 26.9627 77.3481 27.1493 77.4974 27.392L84.4694 38.032C84.6188 37.4907 84.8521 36.968 85.1694 36.464L91.2734 27.504C91.4414 27.2427 91.6188 27.0373 91.8054 26.888C92.0108 26.72 92.2534 26.636 92.5334 26.636H97.1254L87.5774 40.188L97.5174 55Z" fill="white"/>
</g>
<defs>
<filter id="filter0_d" x="1.82001" y="13.756" width="352.596" height="53.72" filterUnits="userSpaceOnUse" color-interpolation-filters="sRGB">
<feFlood flood-opacity="0" result="BackgroundImageFix"/>
<feColorMatrix in="SourceAlpha" type="matrix" values="0 0 0 0 0 0 0 0 0 0 0 0 0 0 0 0 0 0 127 0" result="hardAlpha"/>
<feOffset dx="6" dy="6"/>
<feGaussianBlur stdDeviation="3"/>
<feComposite in2="hardAlpha" operator="out"/>
<feColorMatrix type="matrix" values="0 0 0 0 0 0 0 0 0 0 0 0 0 0 0 0 0 0 1 0"/>
<feBlend mode="normal" in2="BackgroundImageFix" result="effect1_dropShadow"/>
<feBlend mode="normal" in="SourceGraphic" in2="effect1_dropShadow" result="shape"/>
</filter>
</defs>
</svg>
