<svg width="1216" height="153" viewBox="0 0 1216 153" fill="none" xmlns="http://www.w3.org/2000/svg">
<path d="M441.4 7.69999V151H431.7C430.167 151 428.867 150.733 427.8 150.2C426.8 149.667 425.8 148.767 424.8 147.5L341.9 39.5C342.033 41.1667 342.133 42.8 342.2 44.4C342.267 46 342.3 47.5 342.3 48.9V151H325.3V7.69999H335.3C336.167 7.69999 336.9 7.76666 337.5 7.89999C338.1 7.96666 338.633 8.13332 339.1 8.39999C339.567 8.59999 340.033 8.93333 340.5 9.4C340.967 9.79999 341.467 10.3333 342 11L424.9 118.9C424.767 117.167 424.633 115.5 424.5 113.9C424.433 112.233 424.4 110.667 424.4 109.2V7.69999H441.4ZM554.134 97.8L531.634 39.5C530.968 37.7667 530.268 35.7667 529.534 33.5C528.801 31.1667 528.101 28.7 527.434 26.1C526.034 31.5 524.601 36 523.134 39.6L500.634 97.8H554.134ZM594.534 151H579.534C577.801 151 576.401 150.567 575.334 149.7C574.268 148.833 573.468 147.733 572.934 146.4L559.534 111.8H495.234L481.834 146.4C481.434 147.6 480.668 148.667 479.534 149.6C478.401 150.533 477.001 151 475.334 151H460.334L517.634 7.69999H537.234L594.534 151ZM665.366 135.6C671.299 135.6 676.599 134.6 681.266 132.6C685.932 130.6 689.866 127.8 693.066 124.2C696.332 120.6 698.799 116.3 700.466 111.3C702.199 106.3 703.066 100.8 703.066 94.8V7.69999H722.366V94.8C722.366 103.067 721.032 110.733 718.366 117.8C715.766 124.867 711.999 131 707.066 136.2C702.199 141.333 696.232 145.367 689.166 148.3C682.099 151.233 674.166 152.7 665.366 152.7C656.566 152.7 648.632 151.233 641.566 148.3C634.499 145.367 628.499 141.333 623.566 136.2C618.632 131 614.832 124.867 612.166 117.8C609.566 110.733 608.266 103.067 608.266 94.8V7.69999H627.566V94.7C627.566 100.7 628.399 106.2 630.066 111.2C631.799 116.2 634.266 120.5 637.466 124.1C640.732 127.7 644.699 130.533 649.366 132.6C654.099 134.6 659.432 135.6 665.366 135.6ZM906.236 7.69999V151H889.236V45.7C889.236 44.3 889.269 42.8 889.336 41.2C889.469 39.6 889.603 37.9667 889.736 36.3L840.536 125.9C839.003 128.9 836.669 130.4 833.536 130.4H830.736C827.603 130.4 825.269 128.9 823.736 125.9L773.536 35.9C773.936 39.4333 774.136 42.7 774.136 45.7V151H757.136V7.69999H771.436C773.169 7.69999 774.503 7.86666 775.436 8.19999C776.369 8.53332 777.269 9.46666 778.136 11L827.636 99.2C828.436 100.8 829.203 102.467 829.936 104.2C830.736 105.933 831.469 107.7 832.136 109.5C832.803 107.7 833.503 105.933 834.236 104.2C834.969 102.4 835.769 100.7 836.636 99.1L885.236 11C886.036 9.46666 886.903 8.53332 887.836 8.19999C888.836 7.86666 890.203 7.69999 891.936 7.69999H906.236ZM1075.28 79.4C1075.28 90.1333 1073.58 100 1070.18 109C1066.78 117.933 1061.98 125.633 1055.78 132.1C1049.58 138.567 1042.11 143.6 1033.38 147.2C1024.71 150.733 1015.11 152.5 1004.58 152.5C994.045 152.5 984.445 150.733 975.778 147.2C967.111 143.6 959.678 138.567 953.478 132.1C947.278 125.633 942.478 117.933 939.078 109C935.678 100 933.978 90.1333 933.978 79.4C933.978 68.6667 935.678 58.8333 939.078 49.9C942.478 40.9 947.278 33.1667 953.478 26.7C959.678 20.1667 967.111 15.1 975.778 11.5C984.445 7.89999 994.045 6.09999 1004.58 6.09999C1015.11 6.09999 1024.71 7.89999 1033.38 11.5C1042.11 15.1 1049.58 20.1667 1055.78 26.7C1061.98 33.1667 1066.78 40.9 1070.18 49.9C1073.58 58.8333 1075.28 68.6667 1075.28 79.4ZM1055.38 79.4C1055.38 70.6 1054.18 62.7 1051.78 55.7C1049.38 48.7 1045.98 42.8 1041.58 38C1037.18 33.1333 1031.84 29.4 1025.58 26.8C1019.31 24.2 1012.31 22.9 1004.58 22.9C996.911 22.9 989.945 24.2 983.678 26.8C977.411 29.4 972.045 33.1333 967.578 38C963.178 42.8 959.778 48.7 957.378 55.7C954.978 62.7 953.778 70.6 953.778 79.4C953.778 88.2 954.978 96.1 957.378 103.1C959.778 110.033 963.178 115.933 967.578 120.8C972.045 125.6 977.411 129.3 983.678 131.9C989.945 134.433 996.911 135.7 1004.58 135.7C1012.31 135.7 1019.31 134.433 1025.58 131.9C1031.84 129.3 1037.18 125.6 1041.58 120.8C1045.98 115.933 1049.38 110.033 1051.78 103.1C1054.18 96.1 1055.38 88.2 1055.38 79.4ZM1215.63 7.69999L1157.23 151H1139.83L1081.43 7.69999H1096.93C1098.66 7.69999 1100.06 8.13332 1101.13 8.99999C1102.19 9.86666 1102.99 10.9667 1103.53 12.3L1143.93 113.4C1144.79 115.667 1145.63 118.133 1146.43 120.8C1147.29 123.467 1148.06 126.267 1148.73 129.2C1149.39 126.267 1150.09 123.467 1150.83 120.8C1151.56 118.133 1152.36 115.667 1153.23 113.4L1193.53 12.3C1193.93 11.1667 1194.69 10.1333 1195.83 9.19999C1197.03 8.19999 1198.46 7.69999 1200.13 7.69999H1215.63Z" fill="#00ADB5"/>
<path d="M63 102.4C54.8 102.667 47.8 103.333 42 104.4C36.2667 105.4 31.5667 106.733 27.9 108.4C24.3 110.067 21.6667 112.033 20 114.3C18.4 116.567 17.6 119.1 17.6 121.9C17.6 124.567 18.0333 126.867 18.9 128.8C19.7667 130.733 20.9333 132.333 22.4 133.6C23.9333 134.8 25.7 135.7 27.7 136.3C29.7667 136.833 31.9667 137.1 34.3 137.1C37.4333 137.1 40.3 136.8 42.9 136.2C45.5 135.533 47.9333 134.6 50.2 133.4C52.5333 132.2 54.7333 130.767 56.8 129.1C58.9333 127.433 61 125.533 63 123.4V102.4ZM5.5 61C11.1 55.6 17.1333 51.5667 23.6 48.9C30.0667 46.2333 37.2333 44.9 45.1 44.9C50.7667 44.9 55.8 45.8333 60.2 47.7C64.6 49.5667 68.3 52.1667 71.3 55.5C74.3 58.8333 76.5667 62.8667 78.1 67.6C79.6333 72.3333 80.4 77.5333 80.4 83.2V148H72.5C70.7667 148 69.4333 147.733 68.5 147.2C67.5667 146.6 66.8333 145.467 66.3 143.8L64.3 134.2C61.6333 136.667 59.0333 138.867 56.5 140.8C53.9667 142.667 51.3 144.267 48.5 145.6C45.7 146.867 42.7 147.833 39.5 148.5C36.3667 149.233 32.8667 149.6 29 149.6C25.0667 149.6 21.3667 149.067 17.9 148C14.4333 146.867 11.4 145.2 8.8 143C6.26667 140.8 4.23333 138.033 2.7 134.7C1.23333 131.3 0.500001 127.3 0.500001 122.7C0.500001 118.7 1.6 114.867 3.8 111.2C6 107.467 9.56667 104.167 14.5 101.3C19.4333 98.4333 25.8667 96.1 33.8 94.3C41.7333 92.4333 51.4667 91.3667 63 91.1V83.2C63 75.3333 61.3 69.4 57.9 65.4C54.5 61.3333 49.5333 59.3 43 59.3C38.6 59.3 34.9 59.8667 31.9 61C28.9667 62.0667 26.4 63.3 24.2 64.7C22.0667 66.0333 20.2 67.2667 18.6 68.4C17.0667 69.4667 15.5333 70 14 70C12.8 70 11.7667 69.7 10.9 69.1C10.0333 68.4333 9.3 67.6333 8.7 66.7L5.5 61ZM125.914 0.699995V148H108.114V0.699995H125.914ZM222.58 86.3C222.58 82.1667 221.98 78.4 220.78 75C219.646 71.5333 217.946 68.5667 215.68 66.1C213.48 63.5667 210.78 61.6333 207.58 60.3C204.38 58.9 200.746 58.2 196.68 58.2C188.146 58.2 181.38 60.7 176.38 65.7C171.446 70.6333 168.38 77.5 167.18 86.3H222.58ZM236.98 133.8C234.78 136.467 232.146 138.8 229.08 140.8C226.013 142.733 222.713 144.333 219.18 145.6C215.713 146.867 212.113 147.8 208.38 148.4C204.646 149.067 200.946 149.4 197.28 149.4C190.28 149.4 183.813 148.233 177.88 145.9C172.013 143.5 166.913 140.033 162.58 135.5C158.313 130.9 154.98 125.233 152.58 118.5C150.18 111.767 148.98 104.033 148.98 95.3C148.98 88.2333 150.046 81.6333 152.18 75.5C154.38 69.3667 157.513 64.0667 161.58 59.6C165.646 55.0667 170.613 51.5333 176.48 49C182.346 46.4 188.946 45.1 196.28 45.1C202.346 45.1 207.946 46.1333 213.08 48.2C218.28 50.2 222.746 53.1333 226.48 57C230.28 60.8 233.246 65.5333 235.38 71.2C237.513 76.8 238.58 83.2 238.58 90.4C238.58 93.2 238.28 95.0667 237.68 96C237.08 96.9333 235.946 97.4 234.28 97.4H166.58C166.78 103.8 167.646 109.367 169.18 114.1C170.78 118.833 172.98 122.8 175.78 126C178.58 129.133 181.913 131.5 185.78 133.1C189.646 134.633 193.98 135.4 198.78 135.4C203.246 135.4 207.08 134.9 210.28 133.9C213.546 132.833 216.346 131.7 218.68 130.5C221.013 129.3 222.946 128.2 224.48 127.2C226.08 126.133 227.446 125.6 228.58 125.6C230.046 125.6 231.18 126.167 231.98 127.3L236.98 133.8ZM342.277 148H325.177C323.71 148 322.543 147.633 321.677 146.9C320.877 146.1 320.21 145.233 319.677 144.3L294.177 104.6C293.91 105.533 293.61 106.467 293.277 107.4C293.01 108.267 292.61 109.067 292.077 109.8L268.477 144.3C267.81 145.233 267.077 146.1 266.277 146.9C265.543 147.633 264.51 148 263.177 148H247.277L282.777 96L248.677 46.7H265.777C267.243 46.7 268.31 46.9333 268.977 47.4C269.643 47.8667 270.243 48.5333 270.777 49.4L295.677 87.4C296.21 85.4667 297.043 83.6 298.177 81.8L319.977 49.8C320.577 48.8667 321.21 48.1333 321.877 47.6C322.61 47 323.477 46.7 324.477 46.7H340.877L306.777 95.1L342.277 148Z" fill="white"/>
</svg>
