<svg xmlns="http://www.w3.org/2000/svg" version="1.1" xmlns:xlink="http://www.w3.org/1999/xlink" xmlns:svgjs="http://svgjs.com/svgjs" width="1440" height="560" preserveAspectRatio="none" viewBox="0 0 1440 560"><g mask="url(&quot;#SvgjsMask1191&quot;)" fill="none"><rect width="1440" height="560" x="0" y="0" fill="url(#SvgjsLinearGradient1192)"></rect><path d="M764.74 653.99C861.95 617.47 793.82 343.98 1017.33 324.25 1240.84 304.52 1390.7 174.66 1522.52 173.05" stroke="rgba(51,121,194,0.58)" stroke-width="2"></path><path d="M138.2 578.82C325.09 572.37 460.66 286.03 823.6 279.21 1186.54 272.39 1331.9 101.48 1509 100.01" stroke="rgba(51,121,194,0.58)" stroke-width="2"></path><path d="M776.57 593.19C880.91 590.13 945.03 446.48 1162.73 434.43 1380.43 422.38 1434.83 198.23 1548.89 188.03" stroke="rgba(51,121,194,0.58)" stroke-width="2"></path><path d="M369.31 603.07C483.6 598.67 575.32 413.69 785.62 413.38 995.91 413.07 993.77 483.38 1201.92 483.38 1410.08 483.38 1512.69 413.62 1618.23 413.38" stroke="rgba(51,121,194,0.58)" stroke-width="2"></path><path d="M356.79 628.64C531.4 612.38 646.62 247.39 945.12 246.65 1243.61 245.91 1379.7 423.88 1533.44 425.85" stroke="rgba(51,121,194,0.58)" stroke-width="2"></path></g><defs><mask id="SvgjsMask1191"><rect width="1440" height="560" fill="#ffffff"></rect></mask><linearGradient x1="15.28%" y1="-39.29%" x2="84.72%" y2="139.29%" gradientUnits="userSpaceOnUse" id="SvgjsLinearGradient1192"><stop stop-color="#0e2a47" offset="0"></stop><stop stop-color="rgba(0, 0, 0, 1)" offset="1"></stop></linearGradient></defs></svg>