<svg xmlns="http://www.w3.org/2000/svg" version="1.1" xmlns:xlink="http://www.w3.org/1999/xlink" xmlns:svgjs="http://svgjs.com/svgjs" width="1440" height="560" preserveAspectRatio="none" viewBox="0 0 1440 560"><g mask="url(&quot;#SvgjsMask1275&quot;)" fill="none"><rect width="1440" height="560" x="0" y="0" fill="url(#SvgjsLinearGradient1276)"></rect><path d="M-99.56 363.19L-99.56 363.19" stroke="#132e65" stroke-width="1.5"></path><path d="M-99.56 363.19L-64.01 502.2" stroke="#132e65" stroke-width="1.5"></path><path d="M-99.56 363.19L108.92 391.81" stroke="#132e65" stroke-width="1.5"></path><path d="M-64.01 502.2L-64.01 502.2" stroke="#132e65" stroke-width="1.5"></path><path d="M-64.01 502.2L-84.16 644.38" stroke="#132e65" stroke-width="1.5"></path><path d="M-84.16 644.38L-84.16 644.38" stroke="#132e65" stroke-width="1.5"></path><path d="M-84.16 644.38L51.82 645.75" stroke="#132e65" stroke-width="1.5"></path><path d="M-84.16 644.38L88.97 529.07" stroke="#132e65" stroke-width="1.5"></path><path d="M-84.16 644.38L-99.56 363.19" stroke="#132e65" stroke-width="1.5"></path><path d="M108.92 391.81L108.92 391.81" stroke="#132e65" stroke-width="1.5"></path><path d="M108.92 391.81L189.62 400.6" stroke="#132e65" stroke-width="1.5"></path><path d="M108.92 391.81L88.97 529.07" stroke="#132e65" stroke-width="1.5"></path><path d="M108.92 391.81L220.66 490.33" stroke="#132e65" stroke-width="1.5"></path><path d="M88.97 529.07L88.97 529.07" stroke="#132e65" stroke-width="1.5"></path><path d="M88.97 529.07L51.82 645.75" stroke="#132e65" stroke-width="1.5"></path><path d="M88.97 529.07L220.66 490.33" stroke="#132e65" stroke-width="1.5"></path><path d="M88.97 529.07L-64.01 502.2" stroke="#132e65" stroke-width="1.5"></path><path d="M88.97 529.07L189.62 400.6" stroke="#132e65" stroke-width="1.5"></path><path d="M51.82 645.75L51.82 645.75" stroke="#132e65" stroke-width="1.5"></path><path d="M51.82 645.75L-64.01 502.2" stroke="#132e65" stroke-width="1.5"></path><path d="M51.82 645.75L220.66 490.33" stroke="#132e65" stroke-width="1.5"></path><path d="M51.82 645.75L108.92 391.81" stroke="#132e65" stroke-width="1.5"></path><path d="M189.62 400.6L189.62 400.6" stroke="#132e65" stroke-width="1.5"></path><path d="M189.62 400.6L220.66 490.33" stroke="#132e65" stroke-width="1.5"></path><path d="M189.62 400.6L357.94 401.73" stroke="#132e65" stroke-width="1.5"></path><path d="M189.62 400.6L374.44 516.04" stroke="#132e65" stroke-width="1.5"></path><path d="M189.62 400.6L-64.01 502.2" stroke="#132e65" stroke-width="1.5"></path><path d="M220.66 490.33L220.66 490.33" stroke="#132e65" stroke-width="1.5"></path><path d="M220.66 490.33L374.44 516.04" stroke="#132e65" stroke-width="1.5"></path><path d="M220.66 490.33L357.94 401.73" stroke="#132e65" stroke-width="1.5"></path><path d="M357.94 401.73L357.94 401.73" stroke="#132e65" stroke-width="1.5"></path><path d="M357.94 401.73L374.44 516.04" stroke="#132e65" stroke-width="1.5"></path><path d="M357.94 401.73L545.46 348.58" stroke="#132e65" stroke-width="1.5"></path><path d="M357.94 401.73L534.02 517.28" stroke="#132e65" stroke-width="1.5"></path><path d="M374.44 516.04L374.44 516.04" stroke="#132e65" stroke-width="1.5"></path><path d="M374.44 516.04L390.57 647.11" stroke="#132e65" stroke-width="1.5"></path><path d="M374.44 516.04L534.02 517.28" stroke="#132e65" stroke-width="1.5"></path><path d="M390.57 647.11L390.57 647.11" stroke="#132e65" stroke-width="1.5"></path><path d="M390.57 647.11L549.56 700.37" stroke="#132e65" stroke-width="1.5"></path><path d="M390.57 647.11L534.02 517.28" stroke="#132e65" stroke-width="1.5"></path><path d="M390.57 647.11L220.66 490.33" stroke="#132e65" stroke-width="1.5"></path><path d="M390.57 647.11L357.94 401.73" stroke="#132e65" stroke-width="1.5"></path><path d="M390.57 647.11L689.94 701.34" stroke="#132e65" stroke-width="1.5"></path><path d="M545.46 348.58L545.46 348.58" stroke="#132e65" stroke-width="1.5"></path><path d="M545.46 348.58L644.97 409.87" stroke="#132e65" stroke-width="1.5"></path><path d="M545.46 348.58L534.02 517.28" stroke="#132e65" stroke-width="1.5"></path><path d="M545.46 348.58L662.37 504.27" stroke="#132e65" stroke-width="1.5"></path><path d="M534.02 517.28L534.02 517.28" stroke="#132e65" stroke-width="1.5"></path><path d="M534.02 517.28L662.37 504.27" stroke="#132e65" stroke-width="1.5"></path><path d="M534.02 517.28L644.97 409.87" stroke="#132e65" stroke-width="1.5"></path><path d="M549.56 700.37L549.56 700.37" stroke="#132e65" stroke-width="1.5"></path><path d="M549.56 700.37L689.94 701.34" stroke="#132e65" stroke-width="1.5"></path><path d="M644.97 409.87L644.97 409.87" stroke="#132e65" stroke-width="1.5"></path><path d="M644.97 409.87L662.37 504.27" stroke="#132e65" stroke-width="1.5"></path><path d="M644.97 409.87L843.51 383.79" stroke="#132e65" stroke-width="1.5"></path><path d="M662.37 504.27L662.37 504.27" stroke="#132e65" stroke-width="1.5"></path><path d="M662.37 504.27L689.94 701.34" stroke="#132e65" stroke-width="1.5"></path><path d="M662.37 504.27L843.51 383.79" stroke="#132e65" stroke-width="1.5"></path><path d="M662.37 504.27L549.56 700.37" stroke="#132e65" stroke-width="1.5"></path><path d="M689.94 701.34L689.94 701.34" stroke="#132e65" stroke-width="1.5"></path><path d="M689.94 701.34L534.02 517.28" stroke="#132e65" stroke-width="1.5"></path><path d="M814.89 215.87L814.89 215.87" stroke="#132e65" stroke-width="1.5"></path><path d="M814.89 215.87L944.27 206.24" stroke="#132e65" stroke-width="1.5"></path><path d="M814.89 215.87L843.51 383.79" stroke="#132e65" stroke-width="1.5"></path><path d="M814.89 215.87L961.17 45.14" stroke="#132e65" stroke-width="1.5"></path><path d="M843.51 383.79L843.51 383.79" stroke="#132e65" stroke-width="1.5"></path><path d="M843.51 383.79L961.17 391.76" stroke="#132e65" stroke-width="1.5"></path><path d="M843.51 383.79L944.27 206.24" stroke="#132e65" stroke-width="1.5"></path><path d="M843.51 383.79L976.82 542.03" stroke="#132e65" stroke-width="1.5"></path><path d="M972.72 -88.5L972.72 -88.5" stroke="#132e65" stroke-width="1.5"></path><path d="M972.72 -88.5L961.17 45.14" stroke="#132e65" stroke-width="1.5"></path><path d="M972.72 -88.5L1119.91 -105.56" stroke="#132e65" stroke-width="1.5"></path><path d="M972.72 -88.5L1123.33 44.91" stroke="#132e65" stroke-width="1.5"></path><path d="M961.17 45.14L961.17 45.14" stroke="#132e65" stroke-width="1.5"></path><path d="M961.17 45.14L944.27 206.24" stroke="#132e65" stroke-width="1.5"></path><path d="M961.17 45.14L1123.33 44.91" stroke="#132e65" stroke-width="1.5"></path><path d="M944.27 206.24L944.27 206.24" stroke="#132e65" stroke-width="1.5"></path><path d="M944.27 206.24L961.17 391.76" stroke="#132e65" stroke-width="1.5"></path><path d="M944.27 206.24L1128.83 250.97" stroke="#132e65" stroke-width="1.5"></path><path d="M961.17 391.76L961.17 391.76" stroke="#132e65" stroke-width="1.5"></path><path d="M961.17 391.76L976.82 542.03" stroke="#132e65" stroke-width="1.5"></path><path d="M961.17 391.76L1129.8 378.24" stroke="#132e65" stroke-width="1.5"></path><path d="M961.17 391.76L1121.75 499.57" stroke="#132e65" stroke-width="1.5"></path><path d="M961.17 391.76L1128.83 250.97" stroke="#132e65" stroke-width="1.5"></path><path d="M976.82 542.03L976.82 542.03" stroke="#132e65" stroke-width="1.5"></path><path d="M976.82 542.03L985.67 654.75" stroke="#132e65" stroke-width="1.5"></path><path d="M976.82 542.03L1121.75 499.57" stroke="#132e65" stroke-width="1.5"></path><path d="M985.67 654.75L985.67 654.75" stroke="#132e65" stroke-width="1.5"></path><path d="M985.67 654.75L1157.87 664.58" stroke="#132e65" stroke-width="1.5"></path><path d="M1119.91 -105.56L1119.91 -105.56" stroke="#132e65" stroke-width="1.5"></path><path d="M1119.91 -105.56L1123.33 44.91" stroke="#132e65" stroke-width="1.5"></path><path d="M1123.33 44.91L1123.33 44.91" stroke="#132e65" stroke-width="1.5"></path><path d="M1123.33 44.91L1261.5 54.48" stroke="#132e65" stroke-width="1.5"></path><path d="M1123.33 44.91L1128.83 250.97" stroke="#132e65" stroke-width="1.5"></path><path d="M1128.83 250.97L1128.83 250.97" stroke="#132e65" stroke-width="1.5"></path><path d="M1128.83 250.97L1246.52 245.34" stroke="#132e65" stroke-width="1.5"></path><path d="M1128.83 250.97L1129.8 378.24" stroke="#132e65" stroke-width="1.5"></path><path d="M1128.83 250.97L1271.68 348.53" stroke="#132e65" stroke-width="1.5"></path><path d="M1129.8 378.24L1129.8 378.24" stroke="#132e65" stroke-width="1.5"></path><path d="M1129.8 378.24L1121.75 499.57" stroke="#132e65" stroke-width="1.5"></path><path d="M1129.8 378.24L1271.68 348.53" stroke="#132e65" stroke-width="1.5"></path><path d="M1121.75 499.57L1121.75 499.57" stroke="#132e65" stroke-width="1.5"></path><path d="M1121.75 499.57L1157.87 664.58" stroke="#132e65" stroke-width="1.5"></path><path d="M1157.87 664.58L1157.87 664.58" stroke="#132e65" stroke-width="1.5"></path><path d="M1287.68 -79.92L1287.68 -79.92" stroke="#132e65" stroke-width="1.5"></path><path d="M1287.68 -79.92L1261.5 54.48" stroke="#132e65" stroke-width="1.5"></path><path d="M1287.68 -79.92L1431.7 -45.01" stroke="#132e65" stroke-width="1.5"></path><path d="M1261.5 54.48L1261.5 54.48" stroke="#132e65" stroke-width="1.5"></path><path d="M1261.5 54.48L1415.16 67.91" stroke="#132e65" stroke-width="1.5"></path><path d="M1261.5 54.48L1246.52 245.34" stroke="#132e65" stroke-width="1.5"></path><path d="M1261.5 54.48L1431.7 -45.01" stroke="#132e65" stroke-width="1.5"></path><path d="M1246.52 245.34L1246.52 245.34" stroke="#132e65" stroke-width="1.5"></path><path d="M1246.52 245.34L1271.68 348.53" stroke="#132e65" stroke-width="1.5"></path><path d="M1246.52 245.34L1129.8 378.24" stroke="#132e65" stroke-width="1.5"></path><path d="M1246.52 245.34L1457.91 247.27" stroke="#132e65" stroke-width="1.5"></path><path d="M1271.68 348.53L1271.68 348.53" stroke="#132e65" stroke-width="1.5"></path><path d="M1271.68 348.53L1444.72 339.39" stroke="#132e65" stroke-width="1.5"></path><path d="M1291.71 522.88L1291.71 522.88" stroke="#132e65" stroke-width="1.5"></path><path d="M1291.71 522.88L1394.6 555.08" stroke="#132e65" stroke-width="1.5"></path><path d="M1291.71 522.88L1121.75 499.57" stroke="#132e65" stroke-width="1.5"></path><path d="M1291.71 522.88L1271.68 348.53" stroke="#132e65" stroke-width="1.5"></path><path d="M1291.71 522.88L1396.05 677.02" stroke="#132e65" stroke-width="1.5"></path><path d="M1431.7 -45.01L1431.7 -45.01" stroke="#132e65" stroke-width="1.5"></path><path d="M1431.7 -45.01L1415.16 67.91" stroke="#132e65" stroke-width="1.5"></path><path d="M1431.7 -45.01L1546.36 -73.23" stroke="#132e65" stroke-width="1.5"></path><path d="M1415.16 67.91L1415.16 67.91" stroke="#132e65" stroke-width="1.5"></path><path d="M1415.16 67.91L1544.82 59.41" stroke="#132e65" stroke-width="1.5"></path><path d="M1415.16 67.91L1457.91 247.27" stroke="#132e65" stroke-width="1.5"></path><path d="M1415.16 67.91L1546.36 -73.23" stroke="#132e65" stroke-width="1.5"></path><path d="M1457.91 247.27L1457.91 247.27" stroke="#132e65" stroke-width="1.5"></path><path d="M1457.91 247.27L1444.72 339.39" stroke="#132e65" stroke-width="1.5"></path><path d="M1457.91 247.27L1571.34 247.25" stroke="#132e65" stroke-width="1.5"></path><path d="M1444.72 339.39L1444.72 339.39" stroke="#132e65" stroke-width="1.5"></path><path d="M1444.72 339.39L1547.41 346.71" stroke="#132e65" stroke-width="1.5"></path><path d="M1444.72 339.39L1571.34 247.25" stroke="#132e65" stroke-width="1.5"></path><path d="M1394.6 555.08L1394.6 555.08" stroke="#132e65" stroke-width="1.5"></path><path d="M1394.6 555.08L1396.05 677.02" stroke="#132e65" stroke-width="1.5"></path><path d="M1396.05 677.02L1396.05 677.02" stroke="#132e65" stroke-width="1.5"></path><path d="M1546.36 -73.23L1546.36 -73.23" stroke="#132e65" stroke-width="1.5"></path><path d="M1546.36 -73.23L1544.82 59.41" stroke="#132e65" stroke-width="1.5"></path><path d="M1544.82 59.41L1544.82 59.41" stroke="#132e65" stroke-width="1.5"></path><path d="M1544.82 59.41L1431.7 -45.01" stroke="#132e65" stroke-width="1.5"></path><path d="M1544.82 59.41L1571.34 247.25" stroke="#132e65" stroke-width="1.5"></path><path d="M1544.82 59.41L1457.91 247.27" stroke="#132e65" stroke-width="1.5"></path><path d="M1571.34 247.25L1571.34 247.25" stroke="#132e65" stroke-width="1.5"></path><path d="M1571.34 247.25L1547.41 346.71" stroke="#132e65" stroke-width="1.5"></path><path d="M1571.34 247.25L1415.16 67.91" stroke="#132e65" stroke-width="1.5"></path><path d="M1571.34 247.25L1546.77 555.57" stroke="#132e65" stroke-width="1.5"></path><path d="M1547.41 346.71L1547.41 346.71" stroke="#132e65" stroke-width="1.5"></path><path d="M1547.41 346.71L1457.91 247.27" stroke="#132e65" stroke-width="1.5"></path><path d="M1547.41 346.71L1546.77 555.57" stroke="#132e65" stroke-width="1.5"></path><path d="M1547.41 346.71L1394.6 555.08" stroke="#132e65" stroke-width="1.5"></path><path d="M1546.77 555.57L1546.77 555.57" stroke="#132e65" stroke-width="1.5"></path><path d="M1546.77 555.57L1565.58 702.91" stroke="#132e65" stroke-width="1.5"></path><path d="M1546.77 555.57L1394.6 555.08" stroke="#132e65" stroke-width="1.5"></path><path d="M1546.77 555.57L1396.05 677.02" stroke="#132e65" stroke-width="1.5"></path><path d="M1565.58 702.91L1565.58 702.91" stroke="#132e65" stroke-width="1.5"></path><path d="M1565.58 702.91L1396.05 677.02" stroke="#132e65" stroke-width="1.5"></path><path d="M1565.58 702.91L1394.6 555.08" stroke="#132e65" stroke-width="1.5"></path><path d="M1565.58 702.91L1291.71 522.88" stroke="#132e65" stroke-width="1.5"></path><path d="M1565.58 702.91L1547.41 346.71" stroke="#132e65" stroke-width="1.5"></path><path d="M1565.58 702.91L1444.72 339.39" stroke="#132e65" stroke-width="1.5"></path><circle r="5" cx="-99.56" cy="363.19" fill="#132e65"></circle><circle r="5" cx="-64.01" cy="502.2" fill="#132e65"></circle><circle r="5" cx="-84.16" cy="644.38" fill="#132e65"></circle><circle r="5" cx="108.92" cy="391.81" fill="#132e65"></circle><circle r="5" cx="88.97" cy="529.07" fill="#132e65"></circle><circle r="5" cx="51.82" cy="645.75" fill="#132e65"></circle><circle r="5" cx="189.62" cy="400.6" fill="#132e65"></circle><circle r="5" cx="220.66" cy="490.33" fill="#132e65"></circle><circle r="5" cx="357.94" cy="401.73" fill="#132e65"></circle><circle r="5" cx="374.44" cy="516.04" fill="#132e65"></circle><circle r="5" cx="390.57" cy="647.11" fill="#132e65"></circle><circle r="5" cx="545.46" cy="348.58" fill="#132e65"></circle><circle r="5" cx="534.02" cy="517.28" fill="#132e65"></circle><circle r="5" cx="549.56" cy="700.37" fill="#132e65"></circle><circle r="5" cx="644.97" cy="409.87" fill="#132e65"></circle><circle r="5" cx="662.37" cy="504.27" fill="#132e65"></circle><circle r="5" cx="689.94" cy="701.34" fill="#132e65"></circle><circle r="5" cx="814.89" cy="215.87" fill="#132e65"></circle><circle r="5" cx="843.51" cy="383.79" fill="#132e65"></circle><circle r="5" cx="972.72" cy="-88.5" fill="#132e65"></circle><circle r="5" cx="961.17" cy="45.14" fill="#132e65"></circle><circle r="5" cx="944.27" cy="206.24" fill="#132e65"></circle><circle r="5" cx="961.17" cy="391.76" fill="#132e65"></circle><circle r="5" cx="976.82" cy="542.03" fill="#132e65"></circle><circle r="5" cx="985.67" cy="654.75" fill="#132e65"></circle><circle r="5" cx="1119.91" cy="-105.56" fill="#132e65"></circle><circle r="5" cx="1123.33" cy="44.91" fill="#132e65"></circle><circle r="5" cx="1128.83" cy="250.97" fill="#132e65"></circle><circle r="5" cx="1129.8" cy="378.24" fill="#132e65"></circle><circle r="5" cx="1121.75" cy="499.57" fill="#132e65"></circle><circle r="5" cx="1157.87" cy="664.58" fill="#132e65"></circle><circle r="5" cx="1287.68" cy="-79.92" fill="#132e65"></circle><circle r="5" cx="1261.5" cy="54.48" fill="#132e65"></circle><circle r="5" cx="1246.52" cy="245.34" fill="#132e65"></circle><circle r="5" cx="1271.68" cy="348.53" fill="#132e65"></circle><circle r="5" cx="1291.71" cy="522.88" fill="#132e65"></circle><circle r="5" cx="1431.7" cy="-45.01" fill="#132e65"></circle><circle r="5" cx="1415.16" cy="67.91" fill="#132e65"></circle><circle r="5" cx="1457.91" cy="247.27" fill="#132e65"></circle><circle r="5" cx="1444.72" cy="339.39" fill="#132e65"></circle><circle r="5" cx="1394.6" cy="555.08" fill="#132e65"></circle><circle r="5" cx="1396.05" cy="677.02" fill="#132e65"></circle><circle r="5" cx="1546.36" cy="-73.23" fill="#132e65"></circle><circle r="5" cx="1544.82" cy="59.41" fill="#132e65"></circle><circle r="5" cx="1571.34" cy="247.25" fill="#132e65"></circle><circle r="5" cx="1547.41" cy="346.71" fill="#132e65"></circle><circle r="5" cx="1546.77" cy="555.57" fill="#132e65"></circle><circle r="5" cx="1565.58" cy="702.91" fill="#132e65"></circle><path d="M87.5 547.14L87.5 547.14" stroke="hsl(228.5, 77.2%, 51.5%)" stroke-width="1.5"></path><path d="M87.5 547.14L196.58 530.37" stroke="hsl(228.5, 77.2%, 51.5%)" stroke-width="1.5"></path><path d="M87.5 547.14L91.38 665.12" stroke="hsl(228.5, 77.2%, 51.5%)" stroke-width="1.5"></path><path d="M87.5 547.14L210.56 704.54" stroke="hsl(228.5, 77.2%, 51.5%)" stroke-width="1.5"></path><path d="M87.5 547.14L-102.7 692.25" stroke="hsl(228.5, 77.2%, 51.5%)" stroke-width="1.5"></path><path d="M410.68 679.31L410.68 679.31" stroke="hsl(228.5, 77.2%, 51.5%)" stroke-width="1.5"></path><path d="M410.68 679.31L532.07 651.25" stroke="hsl(228.5, 77.2%, 51.5%)" stroke-width="1.5"></path><path d="M410.68 679.31L374.64 517.04" stroke="hsl(228.5, 77.2%, 51.5%)" stroke-width="1.5"></path><path d="M410.68 679.31L210.56 704.54" stroke="hsl(228.5, 77.2%, 51.5%)" stroke-width="1.5"></path><path d="M410.68 679.31L537.28 488.38" stroke="hsl(228.5, 77.2%, 51.5%)" stroke-width="1.5"></path><path d="M537.28 488.38L537.28 488.38" stroke="hsl(228.5, 77.2%, 51.5%)" stroke-width="1.5"></path><path d="M537.28 488.38L553.33 399.22" stroke="hsl(228.5, 77.2%, 51.5%)" stroke-width="1.5"></path><path d="M537.28 488.38L532.07 651.25" stroke="hsl(228.5, 77.2%, 51.5%)" stroke-width="1.5"></path><path d="M537.28 488.38L374.64 517.04" stroke="hsl(228.5, 77.2%, 51.5%)" stroke-width="1.5"></path><path d="M537.28 488.38L704.28 494.91" stroke="hsl(228.5, 77.2%, 51.5%)" stroke-width="1.5"></path><path d="M960.52 343.69L960.52 343.69" stroke="hsl(228.5, 77.2%, 51.5%)" stroke-width="1.5"></path><path d="M960.52 343.69L969.95 251.34" stroke="hsl(228.5, 77.2%, 51.5%)" stroke-width="1.5"></path><path d="M960.52 343.69L812.12 338.44" stroke="hsl(228.5, 77.2%, 51.5%)" stroke-width="1.5"></path><path d="M960.52 343.69L1099.88 396.8" stroke="hsl(228.5, 77.2%, 51.5%)" stroke-width="1.5"></path><path d="M960.52 343.69L1117.73 243.32" stroke="hsl(228.5, 77.2%, 51.5%)" stroke-width="1.5"></path><path d="M960.52 343.69L987.43 550.43" stroke="hsl(228.5, 77.2%, 51.5%)" stroke-width="1.5"></path><path d="M987.43 550.43L987.43 550.43" stroke="hsl(228.5, 77.2%, 51.5%)" stroke-width="1.5"></path><path d="M987.43 550.43L1006.26 699.61" stroke="hsl(228.5, 77.2%, 51.5%)" stroke-width="1.5"></path><path d="M987.43 550.43L1135.05 494.9" stroke="hsl(228.5, 77.2%, 51.5%)" stroke-width="1.5"></path><path d="M1099.88 396.8L1099.88 396.8" stroke="hsl(228.5, 77.2%, 51.5%)" stroke-width="1.5"></path><path d="M1099.88 396.8L1135.05 494.9" stroke="hsl(228.5, 77.2%, 51.5%)" stroke-width="1.5"></path><path d="M1099.88 396.8L1117.73 243.32" stroke="hsl(228.5, 77.2%, 51.5%)" stroke-width="1.5"></path><path d="M1099.88 396.8L1272.05 358.04" stroke="hsl(228.5, 77.2%, 51.5%)" stroke-width="1.5"></path><path d="M1399.75 678.95L1399.75 678.95" stroke="hsl(228.5, 77.2%, 51.5%)" stroke-width="1.5"></path><path d="M1399.75 678.95L1249.9 672.13" stroke="hsl(228.5, 77.2%, 51.5%)" stroke-width="1.5"></path><path d="M1399.75 678.95L1390.58 524.65" stroke="hsl(228.5, 77.2%, 51.5%)" stroke-width="1.5"></path><path d="M1602.54 652.02L1602.54 652.02" stroke="hsl(228.5, 77.2%, 51.5%)" stroke-width="1.5"></path><path d="M1602.54 652.02L1583.1 557.1" stroke="hsl(228.5, 77.2%, 51.5%)" stroke-width="1.5"></path><path d="M1602.54 652.02L1399.75 678.95" stroke="hsl(228.5, 77.2%, 51.5%)" stroke-width="1.5"></path><path d="M1602.54 652.02L1573.42 407.13" stroke="hsl(228.5, 77.2%, 51.5%)" stroke-width="1.5"></path><path d="M1602.54 652.02L1390.58 524.65" stroke="hsl(228.5, 77.2%, 51.5%)" stroke-width="1.5"></path><path d="M1602.54 652.02L1431.17 368.99" stroke="hsl(228.5, 77.2%, 51.5%)" stroke-width="1.5"></path><path d="M-102.7 692.25L-102.7 692.25" stroke="hsl(228.5, 77.2%, 51.5%)" stroke-width="1.5"></path><path d="M-102.7 692.25L91.38 665.12" stroke="hsl(228.5, 77.2%, 51.5%)" stroke-width="1.5"></path><path d="M-102.7 692.25L210.56 704.54" stroke="hsl(228.5, 77.2%, 51.5%)" stroke-width="1.5"></path><path d="M-102.7 692.25L196.58 530.37" stroke="hsl(228.5, 77.2%, 51.5%)" stroke-width="1.5"></path><path d="M-102.7 692.25L374.64 517.04" stroke="hsl(228.5, 77.2%, 51.5%)" stroke-width="1.5"></path><path d="M-102.7 692.25L410.68 679.31" stroke="hsl(228.5, 77.2%, 51.5%)" stroke-width="1.5"></path><path d="M91.38 665.12L91.38 665.12" stroke="hsl(228.5, 77.2%, 51.5%)" stroke-width="1.5"></path><path d="M91.38 665.12L210.56 704.54" stroke="hsl(228.5, 77.2%, 51.5%)" stroke-width="1.5"></path><path d="M196.58 530.37L196.58 530.37" stroke="hsl(228.5, 77.2%, 51.5%)" stroke-width="1.5"></path><path d="M196.58 530.37L91.38 665.12" stroke="hsl(228.5, 77.2%, 51.5%)" stroke-width="1.5"></path><path d="M196.58 530.37L210.56 704.54" stroke="hsl(228.5, 77.2%, 51.5%)" stroke-width="1.5"></path><path d="M210.56 704.54L210.56 704.54" stroke="hsl(228.5, 77.2%, 51.5%)" stroke-width="1.5"></path><path d="M210.56 704.54L374.64 517.04" stroke="hsl(228.5, 77.2%, 51.5%)" stroke-width="1.5"></path><path d="M374.64 517.04L374.64 517.04" stroke="hsl(228.5, 77.2%, 51.5%)" stroke-width="1.5"></path><path d="M374.64 517.04L196.58 530.37" stroke="hsl(228.5, 77.2%, 51.5%)" stroke-width="1.5"></path><path d="M553.33 399.22L553.33 399.22" stroke="hsl(228.5, 77.2%, 51.5%)" stroke-width="1.5"></path><path d="M553.33 399.22L704.28 494.91" stroke="hsl(228.5, 77.2%, 51.5%)" stroke-width="1.5"></path><path d="M553.33 399.22L374.64 517.04" stroke="hsl(228.5, 77.2%, 51.5%)" stroke-width="1.5"></path><path d="M553.33 399.22L532.07 651.25" stroke="hsl(228.5, 77.2%, 51.5%)" stroke-width="1.5"></path><path d="M553.33 399.22L812.12 338.44" stroke="hsl(228.5, 77.2%, 51.5%)" stroke-width="1.5"></path><path d="M532.07 651.25L532.07 651.25" stroke="hsl(228.5, 77.2%, 51.5%)" stroke-width="1.5"></path><path d="M532.07 651.25L640.26 672.42" stroke="hsl(228.5, 77.2%, 51.5%)" stroke-width="1.5"></path><path d="M532.07 651.25L374.64 517.04" stroke="hsl(228.5, 77.2%, 51.5%)" stroke-width="1.5"></path><path d="M532.07 651.25L704.28 494.91" stroke="hsl(228.5, 77.2%, 51.5%)" stroke-width="1.5"></path><path d="M704.28 494.91L704.28 494.91" stroke="hsl(228.5, 77.2%, 51.5%)" stroke-width="1.5"></path><path d="M704.28 494.91L807.16 513.48" stroke="hsl(228.5, 77.2%, 51.5%)" stroke-width="1.5"></path><path d="M640.26 672.42L640.26 672.42" stroke="hsl(228.5, 77.2%, 51.5%)" stroke-width="1.5"></path><path d="M640.26 672.42L704.28 494.91" stroke="hsl(228.5, 77.2%, 51.5%)" stroke-width="1.5"></path><path d="M640.26 672.42L537.28 488.38" stroke="hsl(228.5, 77.2%, 51.5%)" stroke-width="1.5"></path><path d="M812.12 338.44L812.12 338.44" stroke="hsl(228.5, 77.2%, 51.5%)" stroke-width="1.5"></path><path d="M812.12 338.44L807.16 513.48" stroke="hsl(228.5, 77.2%, 51.5%)" stroke-width="1.5"></path><path d="M812.12 338.44L969.95 251.34" stroke="hsl(228.5, 77.2%, 51.5%)" stroke-width="1.5"></path><path d="M812.12 338.44L704.28 494.91" stroke="hsl(228.5, 77.2%, 51.5%)" stroke-width="1.5"></path><path d="M812.12 338.44L987.43 550.43" stroke="hsl(228.5, 77.2%, 51.5%)" stroke-width="1.5"></path><path d="M807.16 513.48L807.16 513.48" stroke="hsl(228.5, 77.2%, 51.5%)" stroke-width="1.5"></path><path d="M807.16 513.48L987.43 550.43" stroke="hsl(228.5, 77.2%, 51.5%)" stroke-width="1.5"></path><path d="M807.16 513.48L960.52 343.69" stroke="hsl(228.5, 77.2%, 51.5%)" stroke-width="1.5"></path><path d="M807.16 513.48L640.26 672.42" stroke="hsl(228.5, 77.2%, 51.5%)" stroke-width="1.5"></path><path d="M807.16 513.48L537.28 488.38" stroke="hsl(228.5, 77.2%, 51.5%)" stroke-width="1.5"></path><path d="M969.95 251.34L969.95 251.34" stroke="hsl(228.5, 77.2%, 51.5%)" stroke-width="1.5"></path><path d="M969.95 251.34L1117.73 243.32" stroke="hsl(228.5, 77.2%, 51.5%)" stroke-width="1.5"></path><path d="M1006.26 699.61L1006.26 699.61" stroke="hsl(228.5, 77.2%, 51.5%)" stroke-width="1.5"></path><path d="M1117.73 243.32L1117.73 243.32" stroke="hsl(228.5, 77.2%, 51.5%)" stroke-width="1.5"></path><path d="M1117.73 243.32L1260.32 261.11" stroke="hsl(228.5, 77.2%, 51.5%)" stroke-width="1.5"></path><path d="M1117.73 243.32L1272.05 358.04" stroke="hsl(228.5, 77.2%, 51.5%)" stroke-width="1.5"></path><path d="M1117.73 243.32L1271.3 67.99" stroke="hsl(228.5, 77.2%, 51.5%)" stroke-width="1.5"></path><path d="M1135.05 494.9L1135.05 494.9" stroke="hsl(228.5, 77.2%, 51.5%)" stroke-width="1.5"></path><path d="M1135.05 494.9L1272.05 358.04" stroke="hsl(228.5, 77.2%, 51.5%)" stroke-width="1.5"></path><path d="M1135.05 494.9L1249.9 672.13" stroke="hsl(228.5, 77.2%, 51.5%)" stroke-width="1.5"></path><path d="M1135.05 494.9L960.52 343.69" stroke="hsl(228.5, 77.2%, 51.5%)" stroke-width="1.5"></path><path d="M1135.05 494.9L1006.26 699.61" stroke="hsl(228.5, 77.2%, 51.5%)" stroke-width="1.5"></path><path d="M1267.62 -51.86L1267.62 -51.86" stroke="hsl(228.5, 77.2%, 51.5%)" stroke-width="1.5"></path><path d="M1267.62 -51.86L1271.3 67.99" stroke="hsl(228.5, 77.2%, 51.5%)" stroke-width="1.5"></path><path d="M1267.62 -51.86L1437.29 -105.33" stroke="hsl(228.5, 77.2%, 51.5%)" stroke-width="1.5"></path><path d="M1271.3 67.99L1271.3 67.99" stroke="hsl(228.5, 77.2%, 51.5%)" stroke-width="1.5"></path><path d="M1271.3 67.99L1432.5 58.86" stroke="hsl(228.5, 77.2%, 51.5%)" stroke-width="1.5"></path><path d="M1271.3 67.99L1260.32 261.11" stroke="hsl(228.5, 77.2%, 51.5%)" stroke-width="1.5"></path><path d="M1271.3 67.99L1437.29 -105.33" stroke="hsl(228.5, 77.2%, 51.5%)" stroke-width="1.5"></path><path d="M1260.32 261.11L1260.32 261.11" stroke="hsl(228.5, 77.2%, 51.5%)" stroke-width="1.5"></path><path d="M1260.32 261.11L1272.05 358.04" stroke="hsl(228.5, 77.2%, 51.5%)" stroke-width="1.5"></path><path d="M1260.32 261.11L1443.76 262.32" stroke="hsl(228.5, 77.2%, 51.5%)" stroke-width="1.5"></path><path d="M1260.32 261.11L1431.17 368.99" stroke="hsl(228.5, 77.2%, 51.5%)" stroke-width="1.5"></path><path d="M1260.32 261.11L1099.88 396.8" stroke="hsl(228.5, 77.2%, 51.5%)" stroke-width="1.5"></path><path d="M1272.05 358.04L1272.05 358.04" stroke="hsl(228.5, 77.2%, 51.5%)" stroke-width="1.5"></path><path d="M1272.05 358.04L1431.17 368.99" stroke="hsl(228.5, 77.2%, 51.5%)" stroke-width="1.5"></path><path d="M1272.05 358.04L1443.76 262.32" stroke="hsl(228.5, 77.2%, 51.5%)" stroke-width="1.5"></path><path d="M1249.9 672.13L1249.9 672.13" stroke="hsl(228.5, 77.2%, 51.5%)" stroke-width="1.5"></path><path d="M1249.9 672.13L1390.58 524.65" stroke="hsl(228.5, 77.2%, 51.5%)" stroke-width="1.5"></path><path d="M1437.29 -105.33L1437.29 -105.33" stroke="hsl(228.5, 77.2%, 51.5%)" stroke-width="1.5"></path><path d="M1437.29 -105.33L1432.5 58.86" stroke="hsl(228.5, 77.2%, 51.5%)" stroke-width="1.5"></path><path d="M1437.29 -105.33L1605.27 -89.38" stroke="hsl(228.5, 77.2%, 51.5%)" stroke-width="1.5"></path><path d="M1432.5 58.86L1432.5 58.86" stroke="hsl(228.5, 77.2%, 51.5%)" stroke-width="1.5"></path><path d="M1432.5 58.86L1267.62 -51.86" stroke="hsl(228.5, 77.2%, 51.5%)" stroke-width="1.5"></path><path d="M1443.76 262.32L1443.76 262.32" stroke="hsl(228.5, 77.2%, 51.5%)" stroke-width="1.5"></path><path d="M1443.76 262.32L1431.17 368.99" stroke="hsl(228.5, 77.2%, 51.5%)" stroke-width="1.5"></path><path d="M1443.76 262.32L1589.02 195.79" stroke="hsl(228.5, 77.2%, 51.5%)" stroke-width="1.5"></path><path d="M1431.17 368.99L1431.17 368.99" stroke="hsl(228.5, 77.2%, 51.5%)" stroke-width="1.5"></path><path d="M1431.17 368.99L1573.42 407.13" stroke="hsl(228.5, 77.2%, 51.5%)" stroke-width="1.5"></path><path d="M1431.17 368.99L1390.58 524.65" stroke="hsl(228.5, 77.2%, 51.5%)" stroke-width="1.5"></path><path d="M1431.17 368.99L1589.02 195.79" stroke="hsl(228.5, 77.2%, 51.5%)" stroke-width="1.5"></path><path d="M1390.58 524.65L1390.58 524.65" stroke="hsl(228.5, 77.2%, 51.5%)" stroke-width="1.5"></path><path d="M1390.58 524.65L1583.1 557.1" stroke="hsl(228.5, 77.2%, 51.5%)" stroke-width="1.5"></path><path d="M1390.58 524.65L1272.05 358.04" stroke="hsl(228.5, 77.2%, 51.5%)" stroke-width="1.5"></path><path d="M1390.58 524.65L1573.42 407.13" stroke="hsl(228.5, 77.2%, 51.5%)" stroke-width="1.5"></path><path d="M1605.27 -89.38L1605.27 -89.38" stroke="hsl(228.5, 77.2%, 51.5%)" stroke-width="1.5"></path><path d="M1605.27 -89.38L1432.5 58.86" stroke="hsl(228.5, 77.2%, 51.5%)" stroke-width="1.5"></path><path d="M1605.27 -89.38L1589.02 195.79" stroke="hsl(228.5, 77.2%, 51.5%)" stroke-width="1.5"></path><path d="M1605.27 -89.38L1267.62 -51.86" stroke="hsl(228.5, 77.2%, 51.5%)" stroke-width="1.5"></path><path d="M1605.27 -89.38L1271.3 67.99" stroke="hsl(228.5, 77.2%, 51.5%)" stroke-width="1.5"></path><path d="M1605.27 -89.38L1443.76 262.32" stroke="hsl(228.5, 77.2%, 51.5%)" stroke-width="1.5"></path><path d="M1589.02 195.79L1589.02 195.79" stroke="hsl(228.5, 77.2%, 51.5%)" stroke-width="1.5"></path><path d="M1589.02 195.79L1432.5 58.86" stroke="hsl(228.5, 77.2%, 51.5%)" stroke-width="1.5"></path><path d="M1589.02 195.79L1573.42 407.13" stroke="hsl(228.5, 77.2%, 51.5%)" stroke-width="1.5"></path><path d="M1573.42 407.13L1573.42 407.13" stroke="hsl(228.5, 77.2%, 51.5%)" stroke-width="1.5"></path><path d="M1573.42 407.13L1583.1 557.1" stroke="hsl(228.5, 77.2%, 51.5%)" stroke-width="1.5"></path><path d="M1573.42 407.13L1443.76 262.32" stroke="hsl(228.5, 77.2%, 51.5%)" stroke-width="1.5"></path><path d="M1583.1 557.1L1583.1 557.1" stroke="hsl(228.5, 77.2%, 51.5%)" stroke-width="1.5"></path><circle r="25" cx="87.5" cy="547.14" fill="url(#SvgjsRadialGradient1277)"></circle><circle r="25" cx="410.68" cy="679.31" fill="url(#SvgjsRadialGradient1277)"></circle><circle r="25" cx="537.28" cy="488.38" fill="url(#SvgjsRadialGradient1277)"></circle><circle r="25" cx="960.52" cy="343.69" fill="url(#SvgjsRadialGradient1277)"></circle><circle r="25" cx="987.43" cy="550.43" fill="url(#SvgjsRadialGradient1277)"></circle><circle r="25" cx="1099.88" cy="396.8" fill="url(#SvgjsRadialGradient1277)"></circle><circle r="25" cx="1399.75" cy="678.95" fill="url(#SvgjsRadialGradient1277)"></circle><circle r="25" cx="1602.54" cy="652.02" fill="url(#SvgjsRadialGradient1277)"></circle><circle r="5" cx="-102.7" cy="692.25" fill="#8b9ad9"></circle><circle r="5" cx="91.38" cy="665.12" fill="#8b9ad9"></circle><circle r="5" cx="196.58" cy="530.37" fill="#8b9ad9"></circle><circle r="5" cx="210.56" cy="704.54" fill="#8b9ad9"></circle><circle r="5" cx="374.64" cy="517.04" fill="#8b9ad9"></circle><circle r="5" cx="553.33" cy="399.22" fill="#8b9ad9"></circle><circle r="5" cx="532.07" cy="651.25" fill="#8b9ad9"></circle><circle r="5" cx="704.28" cy="494.91" fill="#8b9ad9"></circle><circle r="5" cx="640.26" cy="672.42" fill="#8b9ad9"></circle><circle r="5" cx="812.12" cy="338.44" fill="#8b9ad9"></circle><circle r="5" cx="807.16" cy="513.48" fill="#8b9ad9"></circle><circle r="5" cx="969.95" cy="251.34" fill="#8b9ad9"></circle><circle r="5" cx="1006.26" cy="699.61" fill="#8b9ad9"></circle><circle r="5" cx="1117.73" cy="243.32" fill="#8b9ad9"></circle><circle r="5" cx="1135.05" cy="494.9" fill="#8b9ad9"></circle><circle r="5" cx="1267.62" cy="-51.86" fill="#8b9ad9"></circle><circle r="5" cx="1271.3" cy="67.99" fill="#8b9ad9"></circle><circle r="5" cx="1260.32" cy="261.11" fill="#8b9ad9"></circle><circle r="5" cx="1272.05" cy="358.04" fill="#8b9ad9"></circle><circle r="5" cx="1249.9" cy="672.13" fill="#8b9ad9"></circle><circle r="5" cx="1437.29" cy="-105.33" fill="#8b9ad9"></circle><circle r="5" cx="1432.5" cy="58.86" fill="#8b9ad9"></circle><circle r="5" cx="1443.76" cy="262.32" fill="#8b9ad9"></circle><circle r="5" cx="1431.17" cy="368.99" fill="#8b9ad9"></circle><circle r="5" cx="1390.58" cy="524.65" fill="#8b9ad9"></circle><circle r="5" cx="1605.27" cy="-89.38" fill="#8b9ad9"></circle><circle r="5" cx="1589.02" cy="195.79" fill="#8b9ad9"></circle><circle r="5" cx="1573.42" cy="407.13" fill="#8b9ad9"></circle><circle r="5" cx="1583.1" cy="557.1" fill="#8b9ad9"></circle></g><defs><mask id="SvgjsMask1275"><rect width="1440" height="560" fill="#ffffff"></rect></mask><linearGradient x1="0%" y1="50%" x2="100%" y2="50%" gradientUnits="userSpaceOnUse" id="SvgjsLinearGradient1276"><stop stop-color="#0e2a47" offset="0"></stop><stop stop-color="rgba(0, 0, 0, 1)" offset="1"></stop></linearGradient><radialGradient id="SvgjsRadialGradient1277"><stop stop-color="#ffffff" offset="0.1"></stop><stop stop-color="#1735b3" offset="0.2"></stop><stop stop-color="rgba(23, 53, 179, 0)" offset="1"></stop></radialGradient></defs></svg>